<svg id="Layer_1" data-name="Layer 1" xmlns="http://www.w3.org/2000/svg" xmlns:xlink="http://www.w3.org/1999/xlink" viewBox="0 0 227.93 135.8"><defs><style>.cls-1,.cls-2{fill:#fff;}.cls-2{fill-rule:evenodd;}</style></defs><title>simpun-white-2</title><path class="cls-1" d="M64.6,16.2A17.68,17.68,0,0,0,51.8,3.4a111.88,111.88,0,0,0-35.6,0A17.68,17.68,0,0,0,3.4,16.2a111.88,111.88,0,0,0,0,35.6A17.68,17.68,0,0,0,16.2,64.6a111.88,111.88,0,0,0,35.6,0A17.68,17.68,0,0,0,64.6,51.8,111.88,111.88,0,0,0,64.6,16.2ZM33.3,36.3a35.33,35.33,0,0,1-11.1,11,4.84,4.84,0,0,1-4.8.1,4.77,4.77,0,0,1-2.5-4,4.63,4.63,0,0,1,2.4-4.1A23.78,23.78,0,0,0,23.4,34a28,28,0,0,0-6.1-5.3,4.63,4.63,0,0,1-1.7-6.4,4.81,4.81,0,0,1,6.5-1.6A36.08,36.08,0,0,1,33.2,31.6,4.23,4.23,0,0,1,33.3,36.3ZM49.2,46H37.8c-2.1,0-3.8-1-3.8-3s1.7-3,3.8-3H49.2c2.1,0,3.8,1,3.8,3S51.3,46,49.2,46Z" transform="translate(-1.98 -1.98)"/><path class="cls-2" d="M105.8,46.1a1.56,1.56,0,0,1,1.2.6,2.89,2.89,0,0,1,.6,1.7,2.63,2.63,0,0,1-1.4,2.2,5.71,5.71,0,0,1-3.2.9,8.66,8.66,0,0,1-5-1.3c-1.3-.9-2-2.6-2-5.4V31.6H93.8a2.56,2.56,0,0,1-1.9-.8,2.65,2.65,0,0,1-.9-1.9,2.34,2.34,0,0,1,.8-1.8,3.16,3.16,0,0,1,1.9-.7h2.2V23.3a3.23,3.23,0,0,1,.8-2.1,2.65,2.65,0,0,1,2.1-.8,2.79,2.79,0,0,1,2,.8,3,3,0,0,1,.8,2.1v3.1H105a2.56,2.56,0,0,1,1.9.8,2.73,2.73,0,0,1,.8,1.9,2.34,2.34,0,0,1-.8,1.8,3.16,3.16,0,0,1-1.9.7h-3.4v13a2.07,2.07,0,0,0,.5,1.5,2,2,0,0,0,1.4.5,6.53,6.53,0,0,0,1.1-.2A3,3,0,0,1,105.8,46.1Zm28-20.7a3.23,3.23,0,0,1,2.1.8,2.86,2.86,0,0,1,.8,2.1V48.6a3.23,3.23,0,0,1-.8,2.1,2.52,2.52,0,0,1-2.1.8,2.63,2.63,0,0,1-2-.8,2.86,2.86,0,0,1-.8-2.1,11.65,11.65,0,0,1-3.2,2.4,9.07,9.07,0,0,1-4.3,1,11.24,11.24,0,0,1-10.2-6.4,15.26,15.26,0,0,1-1.6-6.9,15.23,15.23,0,0,1,1.5-6.9,12.22,12.22,0,0,1,4.2-4.8,11,11,0,0,1,5.9-1.7,12.17,12.17,0,0,1,4.3.8,14,14,0,0,1,3.4,2.1,3.23,3.23,0,0,1,.8-2.1A2.72,2.72,0,0,1,133.8,25.4Zm-9.7,21.3a6.47,6.47,0,0,0,5.1-2.3,8.42,8.42,0,0,0,2-5.7,8.88,8.88,0,0,0-2-5.8,6.69,6.69,0,0,0-10.1,0,8.69,8.69,0,0,0-2,5.8,8.36,8.36,0,0,0,1.9,5.7A6.47,6.47,0,0,0,124.1,46.7Zm32.1-21.3a11.24,11.24,0,0,1,10.2,6.4,15.26,15.26,0,0,1,1.6,6.9,15.23,15.23,0,0,1-1.5,6.9,12.22,12.22,0,0,1-4.2,4.8,11,11,0,0,1-5.9,1.7,10.36,10.36,0,0,1-4.3-.9,12,12,0,0,1-3.4-2.3v.3a3.23,3.23,0,0,1-.8,2.1,2.52,2.52,0,0,1-2.1.8,3,3,0,0,1-2.1-.8,2.86,2.86,0,0,1-.8-2.1V18.9a3.23,3.23,0,0,1,.8-2.1,2.52,2.52,0,0,1,2.1-.8,3,3,0,0,1,2.1.8,3.23,3.23,0,0,1,.8,2.1v10a9.83,9.83,0,0,1,7.5-3.5Zm-.7,21.3a6.41,6.41,0,0,0,5-2.3,8.69,8.69,0,0,0,2-5.8,8.36,8.36,0,0,0-1.9-5.7,6.8,6.8,0,0,0-10.2,0,8.42,8.42,0,0,0-2,5.7,8.88,8.88,0,0,0,2,5.8A6.17,6.17,0,0,0,155.5,46.7Zm23.6,1.9a3.23,3.23,0,0,1-.8,2.1,2.65,2.65,0,0,1-2.1.8,2.79,2.79,0,0,1-2-.8,3,3,0,0,1-.8-2.1V18.9a3.23,3.23,0,0,1,.8-2.1,2.65,2.65,0,0,1,2.1-.8,2.79,2.79,0,0,1,2,.8,3,3,0,0,1,.8,2.1Zm29.3-10.5a2.32,2.32,0,0,1-.9,1.9,2.88,2.88,0,0,1-2,.7H189.7a7.26,7.26,0,0,0,7.3,6,9,9,0,0,0,3.1-.4,7.5,7.5,0,0,0,1.8-.8,6.78,6.78,0,0,1,.9-.6,3.43,3.43,0,0,1,1.6-.4,2.39,2.39,0,0,1,2.4,2.4,3.09,3.09,0,0,1-1.3,2.4,12.1,12.1,0,0,1-3.6,1.9,14.58,14.58,0,0,1-11.6-.9,12,12,0,0,1-4.6-4.6,13.17,13.17,0,0,1-1.6-6.6,14.74,14.74,0,0,1,1.7-7.2,12.5,12.5,0,0,1,4.6-4.8,11.44,11.44,0,0,1,12,0,12,12,0,0,1,4.5,4.7,15,15,0,0,1,1.5,6.3Zm-12.2-7.5c-3.7,0-5.9,1.7-6.6,5.2h12.6v-.3a5.1,5.1,0,0,0-2-3.5A5.94,5.94,0,0,0,196.2,30.6Zm30.3-5.2a3.65,3.65,0,0,1,2.4.8,2.28,2.28,0,0,1,1,1.9,3,3,0,0,1-.8,2.2,2.09,2.09,0,0,1-1.8.7,5,5,0,0,1-1.6-.3c-.2-.1-.4-.1-.6-.2a4.1,4.1,0,0,0-1.1-.1,4.58,4.58,0,0,0-2.4.8,5.49,5.49,0,0,0-1.9,2.3,8.43,8.43,0,0,0-.7,3.7V48.6a3.23,3.23,0,0,1-.8,2.1,2.52,2.52,0,0,1-2.1.8,3,3,0,0,1-2.1-.8,3.23,3.23,0,0,1-.8-2.1V28.8a3.23,3.23,0,0,1,.8-2.1,2.52,2.52,0,0,1,2.1-.8,3,3,0,0,1,2.1.8,3.23,3.23,0,0,1,.8,2.1v.6a7.17,7.17,0,0,1,3.2-3,9.07,9.07,0,0,1,4.3-1Z" transform="translate(-1.98 -1.98)"/><image width="800" height="800" transform="translate(1.45 75.94) scale(0.08 0.07)" xlink:href="C:%5CUsers%5CHabibi%5CPictures%5C800px-Logo_Politala_segi_lima.png"/><path class="cls-1" d="M92,119.55a21.37,21.37,0,0,1-3.69-.3,24.44,24.44,0,0,1-3.11-.76,24,24,0,0,1-2.38-.92l-.51-5.79a22.3,22.3,0,0,0,4.1,1.71,16.37,16.37,0,0,0,5,.76,7.49,7.49,0,0,0,4.1-.86,3,3,0,0,0,1.27-2.66v-.26a3.19,3.19,0,0,0-.55-1.93,4.5,4.5,0,0,0-1.8-1.34A24.15,24.15,0,0,0,91.08,106a22.6,22.6,0,0,1-5-2,7.4,7.4,0,0,1-2.89-2.82,8.78,8.78,0,0,1-.93-4.26v-.28a7.39,7.39,0,0,1,2.52-6q2.51-2.1,7.43-2.1a20.57,20.57,0,0,1,5.25.58,18.36,18.36,0,0,1,3.68,1.35l.51,5.39a18.37,18.37,0,0,0-3.8-1.55,16.78,16.78,0,0,0-4.66-.62,9.46,9.46,0,0,0-3,.38,2.93,2.93,0,0,0-1.58,1.09,3.13,3.13,0,0,0-.47,1.76V97a3.31,3.31,0,0,0,.49,1.82,4.51,4.51,0,0,0,1.79,1.41,21.7,21.7,0,0,0,3.66,1.32A26.93,26.93,0,0,1,99,103.42a7,7,0,0,1,2.84,2.66,8.71,8.71,0,0,1,.93,4.32v.42q0,4.32-2.67,6.52T92,119.55Z" transform="translate(-1.98 -1.98)"/><path class="cls-1" d="M109.72,93.34a3.13,3.13,0,0,1-2.38-.81,3.1,3.1,0,0,1-.77-2.23v-.11a3.14,3.14,0,0,1,.77-2.24,3.16,3.16,0,0,1,5.53,2.24v.11a3.05,3.05,0,0,1-.78,2.24A3.19,3.19,0,0,1,109.72,93.34Zm2.84,25.6h-5.68V96h5.68Z" transform="translate(-1.98 -1.98)"/><path class="cls-1" d="M123.21,118.94h-5.67V96h5.67l-.22,5.82.22.25Zm13.41,0H131V105a7.8,7.8,0,0,0-.33-2.41,3.11,3.11,0,0,0-1.1-1.58,3.46,3.46,0,0,0-2.07-.56,4.21,4.21,0,0,0-2.1.49,4.33,4.33,0,0,0-1.44,1.32,6,6,0,0,0-.83,1.88l-.88-3.27h1.06a8.07,8.07,0,0,1,1.12-2.73,5.63,5.63,0,0,1,2.14-1.93,7.2,7.2,0,0,1,3.36-.71,6,6,0,0,1,4.58,1.64,8.25,8.25,0,0,1,1.94,4.76q.09.46.15,1.08a9.6,9.6,0,0,1,.07,1.16Zm13.41,0h-5.7V105a7.8,7.8,0,0,0-.33-2.41,3.05,3.05,0,0,0-1.1-1.58,3.46,3.46,0,0,0-2.07-.56,4,4,0,0,0-3.52,1.81,6,6,0,0,0-.82,1.88l-.62-3.27h.57a8.56,8.56,0,0,1,1.16-2.7,5.81,5.81,0,0,1,2.18-2,7.56,7.56,0,0,1,3.51-.72,6.89,6.89,0,0,1,3.85,1,5.69,5.69,0,0,1,2.18,2.89,14,14,0,0,1,.71,4.78Z" transform="translate(-1.98 -1.98)"/><path class="cls-1" d="M160.4,127h-5.65V96h5.67l-.22,5.82.11,1v9.17l-.07,1.07.16,6.28Zm6.76-7.49a7.33,7.33,0,0,1-3.3-.67,5.61,5.61,0,0,1-2.19-1.87,7.94,7.94,0,0,1-1.18-2.85h-1.62l1.44-4.58a6.31,6.31,0,0,0,.63,2.76,4,4,0,0,0,1.64,1.68,5.23,5.23,0,0,0,2.47.56,4.08,4.08,0,0,0,3.28-1.32,5.88,5.88,0,0,0,1.13-3.91v-3.76a5.84,5.84,0,0,0-1.11-3.87,4.05,4.05,0,0,0-3.28-1.31,4.94,4.94,0,0,0-2.23.5,5,5,0,0,0-1.67,1.34,5.25,5.25,0,0,0-.95,1.94l-1.33-3.22h1.57a8.68,8.68,0,0,1,1.15-2.72,5.45,5.45,0,0,1,2.19-1.94,7.91,7.91,0,0,1,3.56-.71,6.88,6.88,0,0,1,5.82,2.6c1.33,1.74,2,4.3,2,7.7V109c0,3.42-.67,6-2,7.81A7,7,0,0,1,167.16,119.48Z" transform="translate(-1.98 -1.98)"/><path class="cls-1" d="M179.15,96h5.67v13.78a7.72,7.72,0,0,0,.36,2.48,3.19,3.19,0,0,0,1.22,1.64,4.1,4.1,0,0,0,2.3.57A5,5,0,0,0,191,114a4.58,4.58,0,0,0,1.57-1.32,5.56,5.56,0,0,0,.91-1.86l.89,3.25h-1.07a8.18,8.18,0,0,1-1.18,2.72,6.07,6.07,0,0,1-2.26,2,8,8,0,0,1-3.58.72,7.45,7.45,0,0,1-4.05-1,5.84,5.84,0,0,1-2.3-3,13.63,13.63,0,0,1-.74-4.83Zm14.16,0H199v22.9h-5.65l.2-5.55-.22-.49Z" transform="translate(-1.98 -1.98)"/><path class="cls-1" d="M209.62,118.94h-5.68V96h5.68l-.23,5.58.23.49Zm14.16,0H218.1V105.19a7.7,7.7,0,0,0-.36-2.49,3.27,3.27,0,0,0-1.21-1.64,4,4,0,0,0-2.3-.58A4.85,4.85,0,0,0,212,101a4.44,4.44,0,0,0-1.58,1.32,6.21,6.21,0,0,0-.92,1.88l-.88-3.27h1.06a8,8,0,0,1,1.19-2.73,5.79,5.79,0,0,1,2.26-1.93,8,8,0,0,1,3.57-.71,7.44,7.44,0,0,1,4.06,1,5.85,5.85,0,0,1,2.29,3,13.62,13.62,0,0,1,.75,4.85Z" transform="translate(-1.98 -1.98)"/></svg>