<svg xmlns="http://www.w3.org/2000/svg" xmlns:xlink="http://www.w3.org/1999/xlink" viewBox="0 0 220.35 59.86"><defs><style>.cls-1{fill:#fff;}</style></defs><title>Asset 1</title><g id="Layer_2" data-name="Layer 2"><g id="Layer_1-2" data-name="Layer 1"><image width="800" height="800" transform="scale(0.08 0.07)" xlink:href="C:%5CUsers%5CHabibi%5CPictures%5C800px-Logo_Politala_segi_lima.png"/><path class="cls-1" d="M88.61,41.63a21.54,21.54,0,0,1-3.69-.3,23.07,23.07,0,0,1-3.1-.76,21.74,21.74,0,0,1-2.38-.92l-.51-5.79A23,23,0,0,0,83,35.58a16.67,16.67,0,0,0,5,.75,7.43,7.43,0,0,0,4.1-.86,3,3,0,0,0,1.27-2.66v-.26a3.23,3.23,0,0,0-.55-1.92,4.32,4.32,0,0,0-1.8-1.34,23.36,23.36,0,0,0-3.44-1.19,23.61,23.61,0,0,1-5-2,7.49,7.49,0,0,1-2.89-2.83A8.78,8.78,0,0,1,78.82,19v-.28a7.4,7.4,0,0,1,2.52-6q2.5-2.1,7.43-2.1a20.57,20.57,0,0,1,5.25.58,18,18,0,0,1,3.68,1.36l.51,5.39a17.84,17.84,0,0,0-3.8-1.55,16.49,16.49,0,0,0-4.67-.62,9.59,9.59,0,0,0-3,.37,3,3,0,0,0-1.57,1.1A3.08,3.08,0,0,0,84.71,19V19a3.29,3.29,0,0,0,.5,1.82A4.51,4.51,0,0,0,87,22.27a21.54,21.54,0,0,0,3.65,1.32,26.36,26.36,0,0,1,4.93,1.91,7,7,0,0,1,2.85,2.67,8.64,8.64,0,0,1,.93,4.31v.42q0,4.32-2.67,6.53T88.61,41.63Z"/><path class="cls-1" d="M106.3,15.42a3.17,3.17,0,0,1-2.38-.8,3.11,3.11,0,0,1-.77-2.23v-.12a3.14,3.14,0,0,1,.77-2.24,3.85,3.85,0,0,1,4.75,0,3.1,3.1,0,0,1,.77,2.24v.12a3.06,3.06,0,0,1-.77,2.24A3.18,3.18,0,0,1,106.3,15.42ZM109.13,41h-5.67V18.13h5.67Z"/><path class="cls-1" d="M119.79,41h-5.67V18.13h5.67l-.22,5.81.22.26Zm13.41,0h-5.67V27.11a7.53,7.53,0,0,0-.34-2.41,3.08,3.08,0,0,0-1.09-1.58,3.46,3.46,0,0,0-2.07-.56,4.29,4.29,0,0,0-2.1.49,4.33,4.33,0,0,0-1.44,1.32,5.82,5.82,0,0,0-.83,1.88L118.77,23h1.07A8.07,8.07,0,0,1,121,20.25a5.5,5.5,0,0,1,2.13-1.92,7.15,7.15,0,0,1,3.37-.72A6,6,0,0,1,131,19.25,8.31,8.31,0,0,1,133,24c.06.31.11.67.15,1.09a9.44,9.44,0,0,1,.07,1.15Zm13.41,0h-5.7V27.11a7.84,7.84,0,0,0-.33-2.41,3.09,3.09,0,0,0-1.1-1.58,3.46,3.46,0,0,0-2.07-.56,4.29,4.29,0,0,0-2.08.49,4.15,4.15,0,0,0-1.44,1.32,5.81,5.81,0,0,0-.82,1.88L132.45,23H133a8.62,8.62,0,0,1,1.15-2.69,5.68,5.68,0,0,1,2.19-1.95,7.55,7.55,0,0,1,3.51-.73,6.91,6.91,0,0,1,3.84,1,5.69,5.69,0,0,1,2.19,2.9,14,14,0,0,1,.71,4.77Z"/><path class="cls-1" d="M157,49.06h-5.65V18.13H157l-.22,5.81.11,1v9.17l-.07,1.08.16,6.28Zm6.76-7.5a7.51,7.51,0,0,1-3.31-.66A5.6,5.6,0,0,1,158.25,39a7.94,7.94,0,0,1-1.18-2.85h-1.62l1.44-4.57a6.27,6.27,0,0,0,.63,2.75A3.86,3.86,0,0,0,159.16,36a5.09,5.09,0,0,0,2.47.56,4.08,4.08,0,0,0,3.28-1.32A5.88,5.88,0,0,0,166,31.36V27.61a5.85,5.85,0,0,0-1.11-3.88,4.06,4.06,0,0,0-3.28-1.31,4.86,4.86,0,0,0-2.24.51,4.94,4.94,0,0,0-1.66,1.34,5.21,5.21,0,0,0-.95,1.93L155.47,23H157a9,9,0,0,1,1.14-2.72,5.52,5.52,0,0,1,2.2-1.93,7.76,7.76,0,0,1,3.55-.72,6.88,6.88,0,0,1,5.83,2.61c1.33,1.73,2,4.3,2,7.69v3.17q0,5.14-2,7.81A7,7,0,0,1,163.74,41.56Z"/><path class="cls-1" d="M175.72,18.13h5.68V31.9a7.78,7.78,0,0,0,.36,2.49A3.17,3.17,0,0,0,183,36a4.08,4.08,0,0,0,2.3.57,4.86,4.86,0,0,0,2.26-.49,4.58,4.58,0,0,0,1.57-1.32,5.61,5.61,0,0,0,.91-1.85l.88,3.24h-1.06a8.11,8.11,0,0,1-1.19,2.72,5.75,5.75,0,0,1-2.26,2,7.88,7.88,0,0,1-3.57.72,7.37,7.37,0,0,1-4-1,5.85,5.85,0,0,1-2.3-3,13.63,13.63,0,0,1-.75-4.84Zm14.16,0h5.68V41h-5.65l.2-5.56-.23-.49Z"/><path class="cls-1" d="M206.19,41h-5.67V18.13h5.67L206,23.71l.22.49Zm14.16,0h-5.67V27.28a7.72,7.72,0,0,0-.36-2.5,3.25,3.25,0,0,0-1.21-1.63,4,4,0,0,0-2.31-.59,5,5,0,0,0-2.25.49A4.49,4.49,0,0,0,207,24.37a6,6,0,0,0-.92,1.88L205.17,23h1.07a8,8,0,0,1,1.18-2.73,5.82,5.82,0,0,1,2.26-1.92,8,8,0,0,1,3.58-.72,7.46,7.46,0,0,1,4.06,1,5.78,5.78,0,0,1,2.29,2.95,13.71,13.71,0,0,1,.74,4.85Z"/></g></g></svg>